<svg width="24" height="25" viewBox="0 0 24 25" fill="none" xmlns="http://www.w3.org/2000/svg">
<path d="M21.9834 10.8145L8.47594 2.55236C8.19267 2.37967 7.86865 2.28523 7.53696 2.27869C7.20526 2.27214 6.87777 2.35371 6.58791 2.51509C6.29804 2.67646 6.05618 2.91186 5.88702 3.19725C5.71785 3.48264 5.62744 3.8078 5.625 4.13955V20.6639C5.62744 20.9957 5.71785 21.3208 5.88702 21.6062C6.05618 21.8916 6.29804 22.127 6.58791 22.2884C6.87777 22.4498 7.20526 22.5313 7.53696 22.5248C7.86865 22.5182 8.19267 22.4238 8.47594 22.2511L21.9834 13.9889C22.2558 13.8231 22.4809 13.59 22.6371 13.3121C22.7934 13.0341 22.8754 12.7206 22.8754 12.4017C22.8754 12.0829 22.7934 11.7694 22.6371 11.4914C22.4809 11.2134 22.2558 10.9803 21.9834 10.8145ZM7.875 19.9814V4.82205L20.265 12.4017L7.875 19.9814Z" fill="#0B0A0A"/>
</svg>
